<?xml version="1.0" encoding="UTF-8"?>
<svg id="Layer_1" data-name="Layer 1" xmlns="http://www.w3.org/2000/svg" viewBox="0 0 174.86 171.57">
  <defs>
    <style>
      .cls-1 {
        fill: #ffd000;
      }

      .cls-2 {
        fill: #fff;
      }

      .cls-3 {
        fill: #cc8de1;
      }
    </style>
  </defs>
  <g>
    <g>
      <path class="cls-2" d="M156.79,62.55c-.63-1.36-1.78-2.42-3.19-2.94l-6.5-2.39,1.31-3.57c.52-1.41.46-2.97-.18-4.34-.63-1.36-1.78-2.42-3.19-2.94l-19.72-7.25c-.65-.24-1.3-.35-1.95-.35-2.31,0-4.48,1.42-5.32,3.72l-1.31,3.57-11.08-4.07,1.31-3.56c1.08-2.94-.43-6.2-3.37-7.28l-19.72-7.25c-.65-.24-1.3-.35-1.95-.35-2.31,0-4.48,1.42-5.32,3.72l-1.31,3.56-6.56-2.41c-.65-.24-1.31-.35-1.95-.35-2.31,0-4.48,1.42-5.32,3.72l-13.77,37.48c-.52,1.41-.46,2.97.18,4.34.63,1.36,1.78,2.42,3.19,2.94l30.85,11.33s-.09,0-.14,0h-20.75c-3.13,0-5.67,2.54-5.67,5.67v3.68h-6.83c-3.13,0-5.67,2.54-5.67,5.67v39.44c0,3.13,2.54,5.67,5.67,5.67h89.3c3.13,0,5.67-2.54,5.67-5.67v-38.76l13.48-36.7c.52-1.41.46-2.97-.18-4.34ZM85.34,89.15l13.62,5v3.08h-11.52v-3.68c0-1.78-.82-3.36-2.1-4.4Z"/>
      <g>
        <rect class="cls-1" x="48.51" y="102.9" width="89.3" height="39.44"/>
        <rect class="cls-1" x="61.01" y="93.6" width="20.76" height="9.95"/>
        <rect class="cls-1" x="104.62" y="93.55" width="20.76" height="11.53"/>
      </g>
      <g>
        <rect class="cls-3" x="57.12" y="48.12" width="90.41" height="39.93" transform="translate(29.75 -31.11) rotate(20.17)"/>
        <rect class="cls-3" x="79.16" y="32.48" width="21.01" height="12.28" transform="translate(18.82 -28.55) rotate(20.17)"/>
        <rect class="cls-3" x="120.58" y="47.69" width="21.01" height="12.41" transform="translate(26.62 -41.9) rotate(20.17)"/>
      </g>
    </g>
    <path class="cls-2" d="M41.3,76.51c-1.67-.72-17.1-7.52-16.04-13.26.35-1.88,2.43-3.45,4.35-3.58,4.21-.29,9,6.29,11.69,16.85Z"/>
  </g>
  <path class="cls-2" d="M37.85,81.51c-10.03,5.19-17.9,6.39-20.38,3.3-1.2-1.5-1.21-4.09-.07-5.63,2.4-3.25,10.35-2.49,20.46,2.34Z"/>
  <path class="cls-2" d="M41.3,89.21c-1.79.29-18.42,3.12-18.79,8.95-.12,1.91,1.51,3.94,3.34,4.54,4.01,1.3,10.26-3.9,15.45-13.49Z"/>
  <path class="cls-2" d="M139.44,109.18c-15.42-5.73-30.85-11.46-46.27-17.19l1.93-5.27,46.14,16.95c-.6,1.84-1.21,3.67-1.81,5.51Z"/>
</svg>