<?xml version="1.0" encoding="utf-8"?>
<!-- Generator: Adobe Illustrator 28.4.1, SVG Export Plug-In . SVG Version: 6.00 Build 0)  -->
<svg version="1.1" id="Layer_1" xmlns="http://www.w3.org/2000/svg" xmlns:xlink="http://www.w3.org/1999/xlink" x="0px" y="0px"
	 viewBox="0 0 2400 2400" style="enable-background:new 0 0 2400 2400;" xml:space="preserve">
<style type="text/css">
	.st0{fill:none;stroke:#000E50;stroke-width:68.0315;stroke-miterlimit:10;}
	.st1{fill:#1D2F70;stroke:#000E50;stroke-width:22.6772;stroke-miterlimit:10;}
	.st2{fill:#CC8DE1;stroke:#000E50;stroke-width:22.6772;stroke-miterlimit:10;}
	.st3{fill:#CC8DE1;}
	.st4{fill:#000E50;}
	.st5{fill:#FFFFFF;stroke:#000E50;stroke-width:22.6772;stroke-miterlimit:10;}
	.st6{fill:#FFFFFF;}
	.st7{fill:#FFD000;}
	.st8{fill:none;stroke:#FFD000;stroke-width:8.5039;stroke-miterlimit:10;}
	.st9{fill:#1D2F70;stroke:#CC8DE1;stroke-width:22.6772;stroke-miterlimit:10;}
	.st10{clip-path:url(#SVGID_00000075853326267536563990000018206349684088356769_);}
	.st11{fill:none;stroke:#FFD000;stroke-width:22.6772;stroke-miterlimit:10;}
	.st12{fill:#FFD000;stroke:#000E50;stroke-width:22.6772;stroke-miterlimit:10;}
	.st13{fill:none;stroke:#000E50;stroke-width:11.3386;stroke-miterlimit:10;}
	.st14{fill:none;stroke:#1D2F70;stroke-width:11.3386;stroke-miterlimit:10;}
	.st15{fill:#1D2F70;}
	.st16{fill:none;stroke:#FFFFFF;stroke-width:22.6772;stroke-linecap:round;stroke-miterlimit:10;}
	.st17{fill:#000E50;stroke:#FFD000;stroke-width:22.6772;stroke-miterlimit:10;}
</style>
<path class="st0" d="M925.5,1931.5c34.2,18,70.8,27.7,109,27.7H816.5c-185.5,0-336-230.9-336-515.7c0-284.8,150.4-515.7,336-515.7
	h217.9c-38.1,0-74.8,9.8-109,27.7c-132.1,69.5-227,261.7-227,488S793.4,1862,925.5,1931.5z"/>
<g>
	<g>
		<rect x="1309.7" y="1077.1" class="st1" width="199.1" height="854.5"/>
	</g>
	<g>
		<path class="st2" d="M1816.3,2238.7h-764.5c-77.2,0-127-81.9-91.3-150.4l87.5-168.3c17.7-34.1,52.9-55.5,91.3-55.5h524.5
			c29.1,0,56.8,12.3,76.3,33.8l152.5,168.3C1952.5,2132.8,1905.6,2238.7,1816.3,2238.7z"/>
	</g>
	<g>
		<g>
			<polygon class="st3" points="1450.4,558.6 1602.3,267.7 1629.3,278.9 1531.1,592 			"/>
		</g>
		<g>
			<path class="st4" d="M1607.5,282.1l7.9,3.3L1524,576.8l-57.8-23.9L1607.5,282.1 M1597,253.3l-9.6,18.4l-141.4,270.7l-11.5,22
				l22.9,9.5l57.8,23.9l22.9,9.5l7.4-23.6l91.4-291.4l6.2-19.8l-19.2-7.9l-7.9-3.3L1597,253.3L1597,253.3z"/>
		</g>
	</g>
	<g>
		<path class="st5" d="M1588.5,1864.5h-322.7c-107.7,0-195-87.3-195-195v-254.6c0-107.7,87.3-195,195-195h322.7
			c107.7,0,195,87.3,195,195v254.6C1783.5,1777.2,1696.2,1864.5,1588.5,1864.5z"/>
	</g>
	<g>
		<g>
			<path class="st6" d="M1427.2,1152.2c-121.9,0-236.7-33.7-323.1-94.9c-42.4-30-75.8-65-99.1-104.1
				c-24.4-40.8-36.8-84.3-36.8-129.1s12.4-88.3,36.8-129.1c23.4-39.1,56.7-74.1,99.1-104.1c86.5-61.2,201.2-94.9,323.1-94.9
				s236.7,33.7,323.1,94.9c42.4,30,75.8,65,99.1,104.1c24.4,40.8,36.8,84.3,36.8,129.1s-12.4,88.3-36.8,129.1
				c-23.4,39.1-56.7,74.1-99.1,104.1C1663.8,1118.5,1549.1,1152.2,1427.2,1152.2z"/>
		</g>
		<g>
			<path class="st4" d="M1427.2,507.3c247.2,0,447.7,141.8,447.7,316.8s-200.4,316.8-447.7,316.8S979.5,999.1,979.5,824.1
				S1179.9,507.3,1427.2,507.3 M1427.2,484.7c-62.6,0-123.5,8.7-180.8,25.8c-55.7,16.7-105.8,40.6-148.9,71.1
				c-43.7,30.9-78.1,67.1-102.3,107.6c-25.5,42.6-38.4,88-38.4,134.9s12.9,92.3,38.4,134.9c24.2,40.4,58.6,76.6,102.3,107.6
				c43.1,30.5,93.2,54.4,148.9,71.1c57.3,17.1,118.1,25.8,180.8,25.8s123.5-8.7,180.8-25.8c55.7-16.7,105.8-40.6,148.9-71.1
				c43.7-30.9,78.1-67.1,102.3-107.6c25.5-42.6,38.4-88,38.4-134.9s-12.9-92.3-38.4-134.9c-24.2-40.4-58.6-76.6-102.3-107.6
				c-43.1-30.5-93.2-54.4-148.9-71.1C1550.6,493.4,1489.8,484.7,1427.2,484.7L1427.2,484.7z"/>
		</g>
	</g>
	<g>
		<g>
			<path class="st4" d="M1616.2,957.5c-163-51.3-341.7-62-514.4-43.7c0,0,9.5-101.9,23.7-161.7c8.7-36.9,19.1-70.4,29.9-100.5
				c56.3-15.9,148.2-34.2,260.8-22.9c73.7,7.4,146.6,27.5,222.8,61.2c0,0-13.2,75.7-18,118.4
				C1614.3,867.7,1616.2,957.5,1616.2,957.5z"/>
		</g>
	</g>
	<g>
		<g>
			<path class="st7" d="M1647.3,452.9c-5.7,0-10.9-2.7-14.2-7.3l-54.6-75.2l-88.4,28.7c-1.8,0.6-3.7,0.9-5.5,0.9
				c-6.6,0-12.6-3.7-15.7-9.7c-3-5.9-2.5-13,1.5-18.4l54.6-75.2l-54.6-75.2c-3.9-5.4-4.5-12.4-1.5-18.4c3-6,9.1-9.7,15.7-9.7
				c1.9,0,3.7,0.3,5.5,0.9l88.4,28.7l54.6-75.2c3.4-4.6,8.6-7.3,14.2-7.3c9.8,0,17.7,7.9,17.7,17.7v93l88.4,28.7
				c7.3,2.4,12.2,9.1,12.2,16.8c0,7.7-4.9,14.4-12.2,16.8l-88.4,28.7v93C1665.1,445,1657.1,452.9,1647.3,452.9z"/>
		</g>
		<g>
			<path class="st4" d="M1647.3,151.9c3.2,0,6.4,2.4,6.4,6.3v96.6c0,2.7,1.8,5.2,4.4,6l91.9,29.9c5.8,1.9,5.8,10.1,0,12l-91.9,29.9
				c-2.6,0.8-4.4,3.3-4.4,6v96.6c0,3.9-3.2,6.3-6.4,6.3c-1.9,0-3.7-0.8-5.1-2.6l-56.8-78.2c-1.2-1.7-3.1-2.6-5.1-2.6
				c-0.7,0-1.3,0.1-2,0.3l-91.9,29.9c-0.7,0.2-1.4,0.3-2,0.3c-4.8,0-8.2-5.7-5-10.1l56.8-78.2c1.6-2.2,1.6-5.2,0-7.4l-56.8-78.2
				c-3.2-4.4,0.2-10.1,5-10.1c0.7,0,1.3,0.1,2,0.3l91.9,29.9c0.6,0.2,1.3,0.3,2,0.3c2,0,3.9-0.9,5.1-2.6l56.8-78.2
				C1643.6,152.7,1645.5,151.9,1647.3,151.9 M1647.3,129.2c-9.3,0-17.9,4.4-23.4,12l-49.8,68.5l-80.6-26.2c-2.9-1-6-1.4-9-1.4
				c-10.9,0-20.8,6.1-25.8,15.9c-5,9.7-4,21.3,2.4,30.2l49.8,68.5l-49.8,68.5c-6.4,8.9-7.4,20.4-2.4,30.2c5,9.8,14.9,15.9,25.8,15.9
				c3.1,0,6.1-0.5,9-1.4l80.6-26.2l49.8,68.5c5.5,7.6,14.1,12,23.4,12c16,0,29.1-13,29.1-29v-84.7l80.6-26.2c12-3.9,20-15,20-27.6
				s-8.1-23.7-20-27.6l-80.6-26.2v-84.7C1676.4,142.2,1663.4,129.2,1647.3,129.2L1647.3,129.2z"/>
		</g>
	</g>
	<g>
		<path class="st8" d="M1395.1,796.4c-1.3,21.3-21.6,37.4-45.3,36s-42-19.8-40.8-41.1"/>
	</g>
	<g>
		<path class="st8" d="M1184.9,750.8c1-16.2,21-28.2,44.8-26.8s42.3,15.7,41.3,31.9"/>
	</g>
	<g>
		<path class="st8" d="M1448.3,770.2c1-16.2,21-28.2,44.8-26.8s42.3,15.7,41.3,31.9"/>
	</g>
	<g>
		<ellipse class="st8" cx="1273.3" cy="1434.3" rx="69" ry="82.5"/>
	</g>
	<g>
		<g>
			<path class="st9" d="M1370.4,1443.5c0,284.8-150.4,515.7-336,515.7c-38.1,0-74.8-9.8-109-27.7c-132.1-69.5-227-261.7-227-488
				s94.9-418.5,227-488c34.2-18,70.8-27.7,109-27.7C1220,927.7,1370.4,1158.6,1370.4,1443.5z"/>
		</g>
		<g>
			<defs>
				<path id="SVGID_1_" d="M925.5,1931.5c34.2,18,70.8,27.7,109,27.7H816.5c-185.5,0-336-230.9-336-515.7
					c0-284.8,150.4-515.7,336-515.7h217.9c-38.1,0-74.8,9.8-109,27.7c-132.1,69.5-227,261.7-227,488S793.4,1862,925.5,1931.5z"/>
			</defs>
			<clipPath id="SVGID_00000126309534503138934260000018375364807843236542_">
				<use xlink:href="#SVGID_1_"  style="overflow:visible;"/>
			</clipPath>
			<g style="clip-path:url(#SVGID_00000126309534503138934260000018375364807843236542_);">
				<path class="st4" d="M925.5,1931.5c34.2,18,70.8,27.7,109,27.7H816.5c-185.5,0-336-230.9-336-515.7
					c0-284.8,150.4-515.7,336-515.7h217.9c-38.1,0-74.8,9.8-109,27.7c-132.1,69.5-227,261.7-227,488S793.4,1862,925.5,1931.5z"/>
			</g>
			<g style="clip-path:url(#SVGID_00000126309534503138934260000018375364807843236542_);">
				<line class="st11" x1="364.3" y1="927.7" x2="1107.6" y2="927.7"/>
				<line class="st11" x1="364.3" y1="1099.7" x2="1107.6" y2="1099.7"/>
				<line class="st11" x1="364.3" y1="1271.6" x2="1107.6" y2="1271.6"/>
				<line class="st11" x1="364.3" y1="1443.5" x2="1107.6" y2="1443.5"/>
				<line class="st11" x1="364.3" y1="1615.4" x2="1107.6" y2="1615.4"/>
				<line class="st11" x1="364.3" y1="1787.3" x2="1107.6" y2="1787.3"/>
				<line class="st11" x1="364.3" y1="1959.2" x2="1107.6" y2="1959.2"/>
			</g>
			<use xlink:href="#SVGID_1_"  style="overflow:visible;fill:none;stroke:#CC8DE1;stroke-width:22.6772;stroke-miterlimit:10;"/>
		</g>
	</g>
	<g>
		<path class="st12" d="M1816.3,2238.7h-306.8c-77.2,0-127-81.9-91.3-150.4l87.5-168.3c17.7-34.1,52.9-55.5,91.3-55.5h66.7
			c29.1,0,56.8,12.3,76.3,33.8l152.5,168.3C1952.5,2132.8,1905.6,2238.7,1816.3,2238.7z"/>
	</g>
	<g>
		<path class="st2" d="M1728.5,1377.7c0,18.6-5.1,35.7-13.8,49.5l0,0l-4.2,6.1l-185,266c-12.6,19-32.2,31.2-54.1,31.2
			c-38.1,0-69-36.9-69-82.5c0-17.3,4.5-33.4,12.1-46.7l8.2-11.8l177.9-255l12.9-18.5c12.2-13.1,28.3-21,46-21
			C1697.6,1295.3,1728.5,1332.2,1728.5,1377.7z"/>
	</g>
	<g>
		<ellipse class="st13" cx="1659.5" cy="1377.7" rx="46.1" ry="55.1"/>
	</g>
	<g>
		<ellipse class="st14" cx="1471.3" cy="1648.2" rx="46.1" ry="55.1"/>
	</g>
	<g>
		<ellipse class="st4" cx="1659.5" cy="1377.7" rx="25.4" ry="30.4"/>
	</g>
	<g>
		<ellipse class="st15" cx="1471.3" cy="1648.2" rx="25.4" ry="30.4"/>
	</g>
	<g>
		<g>
			<path class="st2" d="M1537.1,1694c-23.9,34.9-66.9,47-96.1,27l-291.2-169l-7.6-4.4c-29.2-20-33.5-64.5-9.6-99.4
				c23.9-34.9,66.9-47,96.1-27l291.2,169l7.6,4.4C1556.7,1614.6,1561,1659.1,1537.1,1694z"/>
		</g>
		<g>
			<path class="st3" d="M1149.7,1552c-2.6-1.2-5.1-2.7-7.6-4.4L1149.7,1552z"/>
		</g>
		<g>
			
				<ellipse transform="matrix(0.5649 -0.8251 0.8251 0.5649 -709.126 1623.9595)" class="st13" cx="1185.4" cy="1484.4" rx="55.1" ry="46.1"/>
		</g>
		<g>
			
				<ellipse transform="matrix(0.5649 -0.8251 0.8251 0.5649 -719.861 1931.1008)" class="st13" cx="1471.3" cy="1648.2" rx="55.1" ry="46.1"/>
		</g>
		<g>
			
				<ellipse transform="matrix(0.5649 -0.8251 0.8251 0.5649 -709.126 1623.9595)" class="st4" cx="1185.4" cy="1484.4" rx="30.4" ry="25.4"/>
		</g>
		<g>
			
				<ellipse transform="matrix(0.5649 -0.8251 0.8251 0.5649 -719.861 1931.1008)" class="st4" cx="1471.3" cy="1648.2" rx="30.4" ry="25.4"/>
		</g>
	</g>
	<g>
		<line class="st16" x1="1185.4" y1="1484.4" x2="1164.4" y2="1470.1"/>
	</g>
	<g>
		<g>
			<g>
				<g>
					<path class="st7" d="M1190.9,1659.5c-4.2,0-8.3-2.4-10.3-6.5l-199.8-422.7c-2.7-5.7-0.3-12.4,5.4-15.1
						c5.7-2.7,12.4-0.3,15.1,5.4l199.8,422.7c2.7,5.7,0.3,12.4-5.4,15.1C1194.1,1659.2,1192.5,1659.5,1190.9,1659.5z"/>
				</g>
			</g>
		</g>
		<g>
			<circle class="st17" cx="991" cy="1225.5" r="71.6"/>
		</g>
	</g>
	<g>
		<g>
			<path class="st6" d="M1106.1,1515.5c-23.5,0-45.9-10.3-61.5-28.4c-15.5-17.9-22.1-40.9-18.6-64.7c1.3-8.2,7.9-13.8,16.1-13.8
				c6.9,0,12.7,4,15.2,10.6l0,0.1c0.3,0.9,0.8,2.1,1.2,3.4c0.7,2,1.5,4,1.9,5.3c1.8,4.5,3.5,8.1,5.5,11.1l0.1,0.1
				c7.3,11.8,20.2,19.5,32.8,19.5c0,0,0,0,0,0c3.6,0,7.2-0.6,10.5-1.8c14.9-5.2,23.2-21.5,18.9-37.2c-3.8-14.3-16.7-25.8-33.9-30
				l-0.2-0.1c-0.8-0.2-2.5-0.7-4.1-1.1c-1.5-0.4-3-0.8-3.8-1c-7.2-2-12-8.4-11.9-15.9c0.1-7.5,5.1-13.8,12.4-15.5
				c6-1.5,12.3-2.3,18.7-2.3c28.6,0,56,15.7,70,39.9c11.1,18.7,14.1,40.7,8.3,62.1c-5.8,21.4-19.5,39-38.6,49.5
				C1133.1,1512,1119.8,1515.5,1106.1,1515.5C1106.1,1515.5,1106.1,1515.5,1106.1,1515.5z"/>
		</g>
		<g>
			<path class="st4" d="M1105.7,1359.3c26.1,0,51.8,14,65.1,37c21.4,36,8.5,83.6-28.1,103.8c-12,6.6-24.5,9.6-36.6,9.6
				c-43.2,0-81.5-38.2-74.5-86.6c0.9-5.9,5.7-9,10.5-9c4.1,0,8.1,2.2,9.9,6.9c0.8,2.2,2.5,6.6,3.2,8.8c1.6,4.2,3.6,8.5,6,12.2
				c8.2,13.3,22.7,22.2,37.7,22.2c4.1,0,8.3-0.7,12.4-2.1c17.9-6.2,27.6-25.6,22.5-44.1c-4.6-17.6-20.5-29.7-38-34
				c-1.5-0.4-6.3-1.7-7.9-2.1c-10.6-3-10.2-17.9,0.3-20.5C1094.1,1360,1099.9,1359.3,1105.7,1359.3 M1105.7,1348L1105.7,1348
				c-6.8,0-13.6,0.8-20.1,2.5c-9.8,2.4-16.5,10.8-16.7,20.9c-0.2,10.1,6.3,18.7,16,21.5c0.8,0.2,2.3,0.6,3.8,1
				c1.5,0.4,3.3,0.9,4,1.1l0.2,0.1l0.2,0.1c11.8,2.9,25.9,11.2,29.7,25.9l0,0l0,0c3.5,12.8-3.2,26.2-15.3,30.4l0,0l0,0
				c-2.8,1-5.7,1.5-8.7,1.5c-10.7,0-21.7-6.6-28-16.8l-0.1-0.1l-0.1-0.1c-1.7-2.6-3.3-5.9-4.9-10c-0.5-1.4-1.2-3.4-1.9-5.4
				c-0.5-1.3-0.9-2.4-1.2-3.3l0-0.1l0-0.1c-3.3-8.6-11.3-14.2-20.5-14.2c-11,0-20,7.6-21.7,18.5l0,0.1l0,0.1
				c-3.7,25.5,3.4,50.1,19.9,69.2c16.7,19.3,40.6,30.3,65.8,30.3c14.7,0,28.8-3.7,42.1-11c20.4-11.3,35.1-30.1,41.3-53
				c6.2-22.9,3-46.5-8.9-66.5c-7.5-12.9-18.5-23.8-31.9-31.3C1135.5,1351.9,1120.6,1348,1105.7,1348L1105.7,1348z"/>
		</g>
	</g>
</g>
</svg>
