<?xml version="1.0" encoding="utf-8"?>
<!-- Generator: Adobe Illustrator 28.4.1, SVG Export Plug-In . SVG Version: 6.00 Build 0)  -->
<svg version="1.1" id="Layer_1" xmlns="http://www.w3.org/2000/svg" xmlns:xlink="http://www.w3.org/1999/xlink" x="0px" y="0px"
	 viewBox="0 0 2400 2400" style="enable-background:new 0 0 2400 2400;" xml:space="preserve">
<style type="text/css">
	.st0{fill:#1D2F70;}
	.st1{fill:#000E50;}
	.st2{fill:#FFFFFF;}
	.st3{fill:#CC8DE1;}
	.st4{fill:#FFD000;}
	.st5{clip-path:url(#SVGID_00000153689305662281377090000006744807525959050399_);}
	.st6{fill:none;stroke:#000E50;stroke-width:45.3543;stroke-miterlimit:10;}
</style>
<g>
	<g>
		<path class="st0" d="M636.2,2024.7H462.8v-230c-4.7-106.7,33.6-198.2,92.2-227.9c33.3-16.9,65.5-9.9,84.5-3.1
			C638.4,1717.3,637.3,1871,636.2,2024.7z"/>
		<path class="st1" d="M647.5,2036h-196v-241.1c-4.8-110.2,34.7-206,98.4-238.3c28.2-14.3,60.5-15.5,93.4-3.6l7.5,2.7L647.5,2036z
			 M474.1,2013.3H625l3.1-441.4c-18.4-5.3-43.2-7.6-67.9,5c-26.1,13.2-49,41.4-64.5,79.3c-16.3,39.9-23.8,87.6-21.5,138l0,0.5
			V2013.3z"/>
	</g>
	<g>
		<path class="st0" d="M1763.7,2024.7h173.4v-230c4.7-106.7-33.6-198.2-92.2-227.9c-33.3-16.9-65.5-9.9-84.5-3.1
			C1761.6,1717.3,1762.6,1871,1763.7,2024.7z"/>
		<path class="st1" d="M1948.5,2036h-196l-3.4-480.3l7.5-2.7c33-11.9,65.3-10.6,93.5,3.6c63.7,32.3,103.2,128,98.4,238.3V2036z
			 M1775,2013.3h150.8v-218.9l0-0.2c2.2-50.4-5.2-98.1-21.5-138c-15.5-37.9-38.4-66-64.5-79.3c-24.8-12.6-49.5-10.3-67.9-5
			L1775,2013.3z"/>
	</g>
	<g>
		<g>
			<g>
				<rect x="1100.7" y="1109.8" class="st0" width="199.1" height="854.5"/>
				<path class="st1" d="M1311.1,1975.6h-221.8v-877.2h221.8V1975.6z M1112,1953h176.5v-831.9H1112V1953z"/>
			</g>
		</g>
		<g>
			<g>
				<path class="st2" d="M1361.6,1897.1h-322.7c-107.7,0-195-87.3-195-195v-254.6c0-107.7,87.3-195,195-195h322.7
					c107.7,0,195,87.3,195,195v254.6C1556.6,1809.8,1469.3,1897.1,1361.6,1897.1z"/>
				<path class="st1" d="M1361.6,1908.4h-322.7c-113.8,0-206.3-92.6-206.3-206.3v-254.6c0-113.8,92.6-206.3,206.3-206.3h322.7
					c113.8,0,206.3,92.6,206.3,206.3v254.6C1567.9,1815.9,1475.4,1908.4,1361.6,1908.4z M1038.9,1263.8
					c-101.3,0-183.7,82.4-183.7,183.7v254.6c0,101.3,82.4,183.7,183.7,183.7h322.7c101.3,0,183.7-82.4,183.7-183.7v-254.6
					c0-101.3-82.4-183.7-183.7-183.7H1038.9z"/>
			</g>
		</g>
		<g>
			<g>
				<g>
					<polygon class="st3" points="1267.5,574.7 1419.4,283.7 1446.4,294.9 1348.2,608.1 					"/>
				</g>
			</g>
			<g>
				<g>
					<path class="st1" d="M1424.6,298.2l7.9,3.3l-91.4,291.4l-57.8-23.9L1424.6,298.2 M1414.1,269.3l-9.6,18.4l-141.4,270.7
						l-11.5,22l22.9,9.5l57.8,23.9l22.9,9.5l7.4-23.6l91.4-291.4l6.2-19.8l-19.2-7.9l-7.9-3.3L1414.1,269.3L1414.1,269.3z"/>
				</g>
			</g>
		</g>
		<g>
			<g>
				<g>
					<path class="st4" d="M1464.5,468.9c-5.7,0-10.9-2.7-14.2-7.3l-54.6-75.2l-88.4,28.7c-1.8,0.6-3.7,0.9-5.5,0.9
						c-6.6,0-12.6-3.7-15.7-9.7c-3-5.9-2.5-13,1.5-18.4l54.6-75.2l-54.6-75.2c-3.9-5.4-4.5-12.4-1.5-18.4c3-6,9.1-9.7,15.7-9.7
						c1.9,0,3.7,0.3,5.5,0.9l88.4,28.7l54.6-75.2c3.4-4.6,8.6-7.3,14.2-7.3c9.8,0,17.7,7.9,17.7,17.7v93l88.4,28.7
						c7.3,2.4,12.2,9.1,12.2,16.8c0,7.7-4.9,14.4-12.2,16.8l-88.4,28.7v93C1482.2,461,1474.2,468.9,1464.5,468.9z"/>
				</g>
			</g>
			<g>
				<g>
					<path class="st1" d="M1464.5,167.9c3.2,0,6.4,2.4,6.4,6.3v96.6c0,2.7,1.8,5.2,4.4,6l91.9,29.9c5.8,1.9,5.8,10.1,0,12
						l-91.9,29.9c-2.6,0.8-4.4,3.3-4.4,6v96.6c0,3.9-3.2,6.3-6.4,6.3c-1.9,0-3.7-0.8-5.1-2.6l-56.8-78.2c-1.2-1.7-3.1-2.6-5.1-2.6
						c-0.7,0-1.3,0.1-2,0.3l-91.9,29.9c-0.7,0.2-1.4,0.3-2,0.3c-4.8,0-8.2-5.7-5-10.1l56.8-78.2c1.6-2.2,1.6-5.2,0-7.4l-56.8-78.2
						c-3.2-4.4,0.2-10.1,5-10.1c0.7,0,1.3,0.1,2,0.3l91.9,29.9c0.6,0.2,1.3,0.3,2,0.3c2,0,3.9-0.9,5.1-2.6l56.8-78.2
						C1460.7,168.8,1462.6,167.9,1464.5,167.9 M1464.5,145.3c-9.3,0-17.9,4.4-23.4,12l-49.8,68.5l-80.6-26.2c-2.9-1-6-1.4-9-1.4
						c-10.9,0-20.8,6.1-25.8,15.9c-5,9.7-4,21.3,2.4,30.2l49.8,68.5l-49.8,68.5c-6.4,8.9-7.4,20.4-2.4,30.2
						c5,9.8,14.9,15.9,25.8,15.9c3.1,0,6.1-0.5,9-1.4l80.6-26.2l49.8,68.5c5.5,7.6,14.1,12,23.4,12c16,0,29.1-13,29.1-29v-84.7
						l80.6-26.2c12-3.9,20-15,20-27.6s-8.1-23.7-20-27.6l-80.6-26.2v-84.7C1493.5,158.3,1480.5,145.3,1464.5,145.3L1464.5,145.3z"/>
				</g>
			</g>
		</g>
		<g>
			<g>
				<g>
					<g>
						<path class="st2" d="M1200.2,1183.7c-121.9,0-236.7-33.7-323.1-94.9c-42.4-30-75.8-65-99.1-104.1
							c-24.4-40.8-36.8-84.3-36.8-129.1s12.4-88.3,36.8-129.1c23.4-39.1,56.7-74.1,99.1-104.1c86.5-61.2,201.2-94.9,323.1-94.9
							s236.7,33.7,323.1,94.9c42.4,30,75.8,65,99.1,104.1c24.4,40.8,36.8,84.3,36.8,129.1s-12.4,88.3-36.8,129.1
							c-23.4,39.1-56.7,74.1-99.1,104.1C1436.9,1150,1322.1,1183.7,1200.2,1183.7z"/>
					</g>
				</g>
				<g>
					<g>
						<path class="st1" d="M1200.2,538.8c247.2,0,447.7,141.8,447.7,316.8s-200.4,316.8-447.7,316.8s-447.7-141.8-447.7-316.8
							S953,538.8,1200.2,538.8 M1200.2,516.1c-62.6,0-123.5,8.7-180.8,25.8c-55.7,16.7-105.8,40.6-148.9,71.1
							c-43.7,30.9-78.1,67.1-102.3,107.6c-25.5,42.6-38.4,88-38.4,134.9s12.9,92.3,38.4,134.9c24.2,40.4,58.6,76.6,102.3,107.6
							c43.1,30.5,93.2,54.4,148.9,71.1c57.3,17.1,118.1,25.8,180.8,25.8s123.5-8.7,180.8-25.8c55.7-16.7,105.8-40.6,148.9-71.1
							c43.7-30.9,78.1-67.1,102.3-107.6c25.5-42.6,38.4-88,38.4-134.9s-12.9-92.3-38.4-134.9c-24.2-40.4-58.6-76.6-102.3-107.6
							c-43.1-30.5-93.2-54.4-148.9-71.1C1323.7,524.8,1262.9,516.1,1200.2,516.1L1200.2,516.1z"/>
					</g>
				</g>
			</g>
			<g>
				<path class="st1" d="M1476.6,986.8c-83.7,8.1-175.9,13.4-275.4,13.4c-100.2,0-193.1-5.2-277.4-13.4c0-91.6,0-183.2,0-274.8
					c71.2-18,167.4-35,281.7-34.4c109.4,0.5,201.8,16.9,271.1,34.4C1476.6,803.6,1476.6,895.2,1476.6,986.8z"/>
			</g>
			<g>
				<g>
					<path class="st4" d="M1200.2,932.5c-26.1,0-47.4-19.2-47.4-42.8h8.5c0,18.9,17.4,34.3,38.9,34.3s38.9-15.4,38.9-34.3h8.5
						C1247.6,913.2,1226.4,932.5,1200.2,932.5z"/>
				</g>
			</g>
			<g>
				<g>
					<g>
						<path class="st4" d="M1068.5,857.8c-26.1,0-47.4-15.1-47.4-33.7h8.5c0,13.9,17.4,25.2,38.9,25.2c21.4,0,38.9-11.3,38.9-25.2
							h8.5C1115.9,842.7,1094.6,857.8,1068.5,857.8z"/>
					</g>
				</g>
				<g>
					<g>
						<path class="st4" d="M1331.9,857.8c-26.1,0-47.4-15.1-47.4-33.7h8.5c0,13.9,17.4,25.2,38.9,25.2c21.4,0,38.9-11.3,38.9-25.2
							h8.5C1379.3,842.7,1358.1,857.8,1331.9,857.8z"/>
					</g>
				</g>
			</g>
		</g>
	</g>
	<g>
		<rect x="462.8" y="1780.1" class="st3" width="1474.7" height="474.7"/>
		<path class="st1" d="M1948.9,2266.1H451.5v-497.4h1497.4V2266.1z M474.1,2243.4h1452.1v-452H474.1V2243.4z"/>
	</g>
	<g>
		<path class="st2" d="M1925.9,1780.1H474.4c-4.7,0-7.3-5.4-4.4-9.1l164.5-205.2c1.1-1.3,2.7-2.1,4.4-2.1l1122.5,0
			c1.7,0,3.3,0.8,4.4,2.1l164.5,205.2C1933.2,1774.6,1930.6,1780.1,1925.9,1780.1z"/>
		<path class="st1" d="M1925.9,1791.4H474.4c-6.6,0-12.4-3.7-15.2-9.6c-2.8-5.9-2.1-12.8,2.1-17.9l164.5-205.2c3.2-4,8-6.3,13.2-6.3
			l1122.5,0c5.2,0,10,2.3,13.2,6.3l164.5,205.2c4.1,5.1,4.9,12,2,17.9C1938.3,1787.7,1932.5,1791.4,1925.9,1791.4z M1921.4,1778.1
			L1921.4,1778.1L1921.4,1778.1z M486.4,1768.7h1427.5L1758.6,1575l-1117,0L486.4,1768.7z"/>
	</g>
	<g>
		<g>
			<rect x="1188.8" y="1563.7" class="st1" width="22.7" height="216.4"/>
		</g>
		<g>
			
				<rect x="998.3" y="1660.5" transform="matrix(0.1138 -0.9935 0.9935 0.1138 -679.7601 2581.6726)" class="st1" width="217.8" height="22.7"/>
		</g>
		<g>
			
				<rect x="903.3" y="1660.5" transform="matrix(0.2232 -0.9748 0.9748 0.2232 -841.8309 2287.2908)" class="st1" width="222" height="22.7"/>
		</g>
		<g>
			
				<rect x="806.9" y="1660.5" transform="matrix(0.3249 -0.9458 0.9458 0.3249 -959.1685 2000.0631)" class="st1" width="228.8" height="22.7"/>
		</g>
		<g>
			
				<rect x="709.4" y="1660.5" transform="matrix(0.4164 -0.9092 0.9092 0.4164 -1036.5918 1728.771)" class="st1" width="238" height="22.7"/>
		</g>
		<g>
			
				<rect x="610.7" y="1660.5" transform="matrix(0.4969 -0.8678 0.8678 0.4969 -1080.8716 1479.371)" class="st1" width="249.3" height="22.7"/>
		</g>
		<g>
			
				<rect x="511.2" y="1660.5" transform="matrix(0.5663 -0.8242 0.8242 0.5663 -1099.3168 1254.6404)" class="st1" width="262.5" height="22.7"/>
		</g>
		<g>
			<path class="st1" d="M462.8,1791.4c-2.5,0-5-0.8-7.1-2.5c-4.9-3.9-5.7-11.1-1.8-15.9l173.4-216.4c3.9-4.9,11.1-5.7,15.9-1.8
				c4.9,3.9,5.7,11.1,1.8,15.9l-173.4,216.4C469.4,1789.9,466.1,1791.4,462.8,1791.4z"/>
		</g>
	</g>
	<g>
		<g>
			<rect x="1188.9" y="1563.7" class="st1" width="22.7" height="216.4"/>
		</g>
		<g>
			
				<rect x="1281.8" y="1563" transform="matrix(0.9935 -0.1138 0.1138 0.9935 -181.7982 157.9671)" class="st1" width="22.7" height="217.8"/>
		</g>
		<g>
			
				<rect x="1374.8" y="1560.9" transform="matrix(0.9748 -0.2232 0.2232 0.9748 -338.2383 351.6214)" class="st1" width="22.7" height="222"/>
		</g>
		<g>
			
				<rect x="1467.7" y="1557.5" transform="matrix(0.9458 -0.3249 0.3249 0.9458 -462.927 571.2205)" class="st1" width="22.7" height="228.8"/>
		</g>
		<g>
			
				<rect x="1560.7" y="1552.9" transform="matrix(0.9092 -0.4164 0.4164 0.9092 -553.418 806.4866)" class="st1" width="22.7" height="238"/>
		</g>
		<g>
			
				<rect x="1653.6" y="1547.2" transform="matrix(0.8678 -0.4969 0.4969 0.8678 -610.6251 1048.2393)" class="st1" width="22.7" height="249.3"/>
		</g>
		<g>
			
				<rect x="1746.6" y="1540.6" transform="matrix(0.8242 -0.5663 0.5663 0.8242 -637.7171 1289.3479)" class="st1" width="22.7" height="262.5"/>
		</g>
		<g>
			
				<rect x="1839.5" y="1533.2" transform="matrix(0.7803 -0.6254 0.6254 0.7803 -638.9581 1524.9358)" class="st1" width="22.7" height="277.3"/>
		</g>
	</g>
	<g>
		<defs>
			<rect id="SVGID_1_" x="462.8" y="1659" width="1474.8" height="121"/>
		</defs>
		<clipPath id="SVGID_00000092418646439640732610000005811057802647861134_">
			<use xlink:href="#SVGID_1_"  style="overflow:visible;"/>
		</clipPath>
		<g style="clip-path:url(#SVGID_00000092418646439640732610000005811057802647861134_);">
			<g>
				<line class="st6" x1="658.2" y1="1649" x2="568.1" y2="1780.1"/>
				<line class="st6" x1="673.5" y1="1780.1" x2="748.5" y2="1649"/>
				<line class="st6" x1="778.8" y1="1780.1" x2="838.8" y2="1649"/>
				<line class="st6" x1="884.2" y1="1780.1" x2="929.2" y2="1649"/>
				<line class="st6" x1="989.5" y1="1780.1" x2="1019.5" y2="1649"/>
				<line class="st6" x1="1094.9" y1="1780.1" x2="1109.9" y2="1649"/>
				<line class="st6" x1="1200.2" y1="1780.1" x2="1200.2" y2="1649"/>
			</g>
			<g>
				<line class="st6" x1="1742.3" y1="1649" x2="1832.3" y2="1780.1"/>
				<line class="st6" x1="1726.9" y1="1780.1" x2="1651.9" y2="1649"/>
				<line class="st6" x1="1621.6" y1="1780.1" x2="1561.6" y2="1649"/>
				<line class="st6" x1="1516.2" y1="1780.1" x2="1471.2" y2="1649"/>
				<line class="st6" x1="1410.9" y1="1780.1" x2="1380.9" y2="1649"/>
				<line class="st6" x1="1305.5" y1="1780.1" x2="1290.5" y2="1649"/>
				<line class="st6" x1="1200.2" y1="1780.1" x2="1200.2" y2="1649"/>
			</g>
		</g>
	</g>
	<g>
		<g>
			<path class="st3" d="M781.9,1652.5L781.9,1652.5c-27.2,0-49.3-22.1-49.3-49.3v-255.3c0-27.2,22.1-49.3,49.3-49.3h0
				c27.2,0,49.3,22.1,49.3,49.3v255.3C831.2,1630.4,809.1,1652.5,781.9,1652.5z"/>
			<path class="st1" d="M781.9,1663.8c-33.4,0-60.6-27.2-60.6-60.6v-255.3c0-33.4,27.2-60.6,60.6-60.6s60.6,27.2,60.6,60.6v255.3
				C842.5,1636.6,815.4,1663.8,781.9,1663.8z M781.9,1310c-20.9,0-37.9,17-37.9,37.9v255.3c0,20.9,17,37.9,37.9,37.9
				c20.9,0,37.9-17,37.9-37.9v-255.3C819.9,1327,802.9,1310,781.9,1310z"/>
		</g>
		<g>
			<path class="st3" d="M714.4,1616L714.4,1616c-23.2-15.1-29.8-46.2-14.7-69.5l24.2-37.2c15.1-23.2,46.2-29.8,69.5-14.7l0,0
				c23.2,15.1,29.8,46.2,14.7,69.5l-24.2,37.2C768.7,1624.5,737.6,1631.1,714.4,1616z"/>
			<path class="st1" d="M741.7,1635.4c-11.5,0-23.2-3.2-33.5-10c-13.8-9-23.2-22.8-26.6-38.9c-3.4-16.1-0.3-32.5,8.7-46.3l24.2-37.2
				c18.5-28.4,56.7-36.5,85.2-18c28.4,18.5,36.5,56.7,18,85.2l-24.2,37.2C781.6,1625.6,761.8,1635.4,741.7,1635.4z M766.1,1497.9
				c-12.7,0-25.2,6.2-32.6,17.6l-24.2,37.2c-5.7,8.7-7.6,19.1-5.5,29.2c2.1,10.2,8.1,18.9,16.8,24.5c18,11.7,42.1,6.6,53.8-11.3
				l24.2-37.2c11.7-18,6.6-42.1-11.3-53.8C780.7,1499.9,773.4,1497.9,766.1,1497.9z"/>
		</g>
		<g>
			<g>
				<path class="st4" d="M779.5,1610.4c5.5,22.8,0.6,47-13.3,66.4c-13.8,19.2-34.6,31-58.6,33.1c-8.3,0.6-15.3-4.5-17.2-12.5
					c-1.6-6.7,1-13.3,6.7-17.2l0.1-0.1c0.8-0.5,1.9-1.2,3-2c1.7-1.2,3.5-2.4,4.8-3.1c3.9-2.7,7.1-5.3,9.5-7.9l0.1-0.1
					c9.8-9.9,14.3-24.2,11.3-36.5c0,0,0,0,0,0c-0.8-3.5-2.3-6.8-4.2-9.8c-8.5-13.3-26.3-17.6-40.6-9.8c-13.1,7-21.2,22.3-21.3,39.9
					l0,0.2c0,0.8-0.1,2.6-0.1,4.3c0,1.6-0.1,3.1-0.1,3.9c-0.3,7.5-5.4,13.7-12.7,15.3c-7.3,1.6-14.6-1.8-18-8.5
					c-2.9-5.5-5.1-11.5-6.6-17.7c-6.6-27.8,2.2-58.1,22.5-77.3c15.6-15.2,36.4-23.2,58.5-22.5c22.1,0.7,42.4,9.9,57.1,26
					C769.8,1585,776.3,1597,779.5,1610.4C779.5,1610.3,779.5,1610.4,779.5,1610.4z"/>
				<path class="st1" d="M706.1,1721.2c-12.9,0-23.8-8.5-26.8-21.2c-2.7-11.3,1.8-22.7,11.4-29.3l0.2-0.1c0.8-0.5,1.8-1.2,2.9-1.9
					l0.1-0.1c1.7-1.1,3.4-2.3,4.7-3.1c3.2-2.3,5.7-4.3,7.6-6.3l0.2-0.2c7-7,10.4-17.4,8.4-25.8l0,0c-0.5-2.3-1.4-4.4-2.7-6.3
					c-5.3-8.3-16.6-10.9-25.7-6c-9.5,5.1-15.3,16.6-15.4,30l0,0.7c0,0.7-0.1,2.1-0.1,3.5l0,0.6c0,1.6-0.1,3.2-0.1,4
					c-0.5,12.7-9.2,23.1-21.6,25.9c-12.4,2.7-24.7-3-30.5-14.4c-3.3-6.3-5.8-13.1-7.5-20.2c-7.5-31.6,2.5-66.2,25.7-88.2
					c17.8-17.3,41.5-26.4,66.7-25.7c25.2,0.8,48.4,11.3,65.1,29.7c10.8,11.9,18.2,25.6,21.8,40.8l0,0.1c6.2,26,0.7,53.6-15.1,75.6
					c-15.8,21.9-39.5,35.3-66.8,37.8l-0.2,0C707.6,1721.2,706.9,1721.2,706.1,1721.2z M703.4,1689.6c-1.8,1.3-2.5,3-2,5.2
					c0.6,2.5,2.6,4,5.3,3.8c20.6-1.9,38.5-12,50.3-28.4c12-16.7,16.2-37.4,11.5-57.1l0-0.1c-2.7-11.4-8.3-21.8-16.5-30.9
					c-12.6-13.8-30-21.7-49.1-22.3c-19.1-0.6-36.9,6.3-50.3,19.3l-0.1,0.1c-17.4,16.5-25,42.6-19.3,66.5c1.3,5.3,3.1,10.3,5.6,15.1
					c1.1,2.1,3.2,3.1,5.5,2.6c2.3-0.5,3.8-2.3,3.9-4.7c0-0.8,0.1-2.2,0.1-3.7l0-0.6c0-1.5,0.1-3,0.1-3.8l0,0
					c0.2-21.7,10.6-40.8,27.3-49.7c19.4-10.6,43.8-4.6,55.5,13.7c2.4,3.7,4.2,7.7,5.3,12l0.7,1.3l0,1.4c3.2,15.7-2.5,33.4-14.6,45.7
					l0,0c-3,3.1-6.6,6.2-11.2,9.3l-0.4,0.3c-1.1,0.7-2.8,1.8-4.4,2.9l-0.1,0.1C705.3,1688.3,704.2,1689,703.4,1689.6z"/>
			</g>
		</g>
	</g>
	<g>
		<g>
			<path class="st3" d="M1620,1655.8L1620,1655.8c27.2,0,49.3-22.1,49.3-49.3v-255.3c0-27.2-22.1-49.3-49.3-49.3h0
				c-27.2,0-49.3,22.1-49.3,49.3v255.3C1570.8,1633.7,1592.8,1655.8,1620,1655.8z"/>
			<path class="st1" d="M1620,1667.1c-33.4,0-60.6-27.2-60.6-60.6v-255.3c0-33.4,27.2-60.6,60.6-60.6c33.4,0,60.6,27.2,60.6,60.6
				v255.3C1680.6,1639.9,1653.4,1667.1,1620,1667.1z M1620,1313.3c-20.9,0-37.9,17-37.9,37.9v255.3c0,20.9,17,37.9,37.9,37.9
				c20.9,0,37.9-17,37.9-37.9v-255.3C1657.9,1330.3,1640.9,1313.3,1620,1313.3z"/>
		</g>
		<g>
			<path class="st3" d="M1687.5,1619.3L1687.5,1619.3c23.2-15.1,29.8-46.2,14.7-69.5l-24.2-37.2c-15.1-23.2-46.2-29.8-69.5-14.7h0
				c-23.2,15.1-29.8,46.2-14.7,69.5l24.2,37.2C1633.2,1627.9,1664.3,1634.4,1687.5,1619.3z"/>
			<path class="st1" d="M1660.3,1638.8c-4.3,0-8.6-0.4-12.8-1.3c-16.1-3.4-29.9-12.8-38.9-26.6l-24.2-37.2
				c-18.5-28.4-10.5-66.6,18-85.2c28.4-18.5,66.6-10.5,85.2,18l24.2,37.2c18.5,28.4,10.5,66.6-18,85.2
				C1683.6,1635.4,1672.1,1638.8,1660.3,1638.8z M1635.8,1501.2c-7.5,0-14.8,2.2-21.1,6.3c-18,11.7-23,35.8-11.3,53.8l24.2,37.2
				c5.7,8.7,14.4,14.7,24.5,16.8c10.2,2.1,20.5,0.2,29.2-5.5l0,0c8.7-5.7,14.7-14.4,16.8-24.5s0.2-20.5-5.5-29.2l-24.2-37.2
				c-5.7-8.7-14.4-14.7-24.5-16.8C1641.2,1501.5,1638.5,1501.2,1635.8,1501.2z"/>
		</g>
		<g>
			<g>
				<path class="st4" d="M1622.5,1613.7c-5.5,22.8-0.6,47,13.3,66.4c13.8,19.2,34.6,31,58.6,33.1c8.3,0.6,15.3-4.5,17.2-12.5
					c1.6-6.7-1-13.3-6.7-17.2l-0.1-0.1c-0.8-0.5-1.9-1.2-3-2c-1.7-1.2-3.5-2.4-4.8-3.1c-3.9-2.7-7.1-5.3-9.5-7.9l-0.1-0.1
					c-9.8-9.9-14.3-24.2-11.3-36.5c0,0,0,0,0,0c0.8-3.5,2.3-6.8,4.2-9.8c8.5-13.3,26.3-17.6,40.6-9.8c13.1,7,21.2,22.3,21.3,39.9
					l0,0.2c0,0.8,0.1,2.6,0.1,4.3c0,1.6,0.1,3.1,0.1,3.9c0.3,7.5,5.4,13.7,12.7,15.3c7.3,1.6,14.6-1.8,18-8.5
					c2.9-5.5,5.1-11.5,6.6-17.7c6.6-27.8-2.2-58.1-22.5-77.3c-15.6-15.2-36.4-23.2-58.5-22.5c-22.1,0.7-42.4,9.9-57.1,26
					C1632.1,1588.3,1625.7,1600.4,1622.5,1613.7C1622.5,1613.7,1622.5,1613.7,1622.5,1613.7z"/>
				<path class="st1" d="M1695.8,1724.6c-0.8,0-1.5,0-2.3-0.1l-0.2,0c-27.3-2.5-51-15.9-66.8-37.8c-15.6-21.6-21.2-48.6-15.4-74.3v0
					l0.3-1.1c0-0.1,0-0.2,0.1-0.2l0.3-1.3c3.7-14.7,11-28,21.5-39.6c16.8-18.4,39.9-28.9,65.1-29.7c25.2-0.8,48.9,8.4,66.7,25.7
					c23.2,21.9,33.3,56.5,25.7,88.2c-1.7,7.1-4.2,13.9-7.5,20.3c-5.8,11.3-18.1,17-30.5,14.3c-12.4-2.7-21.1-13.1-21.6-25.9
					c0-0.8-0.1-2.4-0.1-4l0-0.3c0-1.5-0.1-3-0.1-3.7l0-0.7c-0.1-13.5-6-25-15.3-30c-9.2-5-20.4-2.4-25.7,5.9c-1.3,2-2.2,4.1-2.7,6.4
					c-2,8.4,1.3,18.8,8.4,25.8l0.2,0.2c1.9,2,4.4,4,7.6,6.3c1.3,0.8,3,2,4.7,3.1c1.2,0.8,2.2,1.5,2.9,1.9l0.3,0.2
					c9.6,6.5,14.1,18,11.4,29.3C1719.6,1716.1,1708.7,1724.6,1695.8,1724.6z M1695.3,1701.9c2.6,0.2,4.7-1.3,5.3-3.8
					c0.5-2.1-0.2-3.9-2-5.2l0,0c-0.7-0.5-1.9-1.2-3-2c-1.7-1.1-3.4-2.3-4.5-2.9l-0.4-0.3c-4.6-3.2-8.2-6.2-11.2-9.3l0,0
					c-12.5-12.6-18.1-31.1-14.3-47.1c1.1-4.8,3.1-9.3,5.7-13.4c11.7-18.2,36.1-24.2,55.6-13.6c16.6,8.9,27.1,27.9,27.2,49.7v0
					c0,0.9,0.1,2.4,0.1,4l0,0.3c0,1.5,0.1,3,0.1,3.7c0.1,2.4,1.6,4.1,3.9,4.7c2.3,0.5,4.4-0.5,5.5-2.6c2.5-4.8,4.4-9.8,5.6-15.1
					c5.7-23.9-1.9-50-19.3-66.5l-0.1-0.1c-13.4-13-31.2-19.9-50.3-19.3c-19,0.6-36.5,8.5-49.1,22.3c-7.9,8.7-13.4,18.7-16.2,29.6
					v1.3l-0.6,1.2c-4.2,19.3,0,39.6,11.8,55.9C1656.8,1689.9,1674.7,1700,1695.3,1701.9z"/>
			</g>
		</g>
	</g>
</g>
</svg>
