<?xml version="1.0" encoding="utf-8"?>
<!-- Generator: Adobe Illustrator 28.4.1, SVG Export Plug-In . SVG Version: 6.00 Build 0)  -->
<svg version="1.1" id="Layer_1" xmlns="http://www.w3.org/2000/svg" xmlns:xlink="http://www.w3.org/1999/xlink" x="0px" y="0px"
	 viewBox="0 0 2400 2400" style="enable-background:new 0 0 2400 2400;" xml:space="preserve">
<style type="text/css">
	.st0{fill:#CC8DE1;stroke:#000E50;stroke-width:22.6772;stroke-miterlimit:10;}
	.st1{fill:#FFD000;stroke:#000E50;stroke-width:22.6772;stroke-miterlimit:10;}
	.st2{fill:#1D2F70;}
	.st3{fill:#000E50;}
	.st4{fill:#FFFFFF;}
	.st5{fill:#CC8DE1;}
	.st6{fill:#FFD000;}
	.st7{fill:none;stroke:#000E50;stroke-width:22.6772;stroke-miterlimit:10;}
	.st8{fill:#000E50;stroke:#000E50;stroke-width:22.6772;stroke-miterlimit:10;}
</style>
<g>
	<path class="st0" d="M957.2,1657.3L957.2,1657.3c-28.2,0-51.1-22.9-51.1-51.1v-207.4c0-28.2,22.9-51.1,51.1-51.1h0
		c28.2,0,51.1,22.9,51.1,51.1v207.4C1008.3,1634.4,985.4,1657.3,957.2,1657.3z"/>
	<path class="st0" d="M1807.3,1792.7L1807.3,1792.7c-28.2,0-51.1-22.9-51.1-51.1v-342.9c0-28.2,22.9-51.1,51.1-51.1h0
		c28.2,0,51.1,22.9,51.1,51.1v342.9C1858.4,1769.8,1835.5,1792.7,1807.3,1792.7z"/>
	<g>
		<g>
			<path class="st1" d="M1704.2,2249.1h-699.9c-77.2,0-127-81.9-91.3-150.4l87.5-168.3c17.7-34.1,52.9-55.5,91.3-55.5h524.9
				c38.4,0,73.6,21.4,91.3,55.5l87.5,168.3C1831.2,2167.2,1781.4,2249.1,1704.2,2249.1z"/>
		</g>
	</g>
	<g>
		<g>
			<g>
				<rect x="1287" y="1115.4" class="st2" width="199.1" height="854.5"/>
				<path class="st3" d="M1497.5,1981.3h-221.8v-877.2h221.8V1981.3z M1298.4,1958.6h176.5v-831.9h-176.5V1958.6z"/>
			</g>
		</g>
		<g>
			<g>
				<path class="st4" d="M1548,1864.2h-322.7c-107.7,0-195-87.3-195-195v-216.7c0-107.7,87.3-195,195-195H1548
					c107.7,0,195,87.3,195,195v216.7C1743,1776.9,1655.7,1864.2,1548,1864.2z"/>
				<path class="st3" d="M1548,1874.9h-322.7c-113.8,0-206.3-87.1-206.3-194.2V1441c0-107.1,92.6-194.2,206.3-194.2H1548
					c113.8,0,206.3,87.1,206.3,194.2v239.6C1754.3,1787.7,1661.7,1874.9,1548,1874.9z M1225.2,1268.2
					c-101.3,0-183.7,77.5-183.7,172.9v239.6c0,95.3,82.4,172.9,183.7,172.9H1548c101.3,0,183.7-77.5,183.7-172.9V1441
					c0-95.3-82.4-172.9-183.7-172.9H1225.2z"/>
			</g>
		</g>
		<g>
			<g>
				<g>
					<g>
						<polygon class="st5" points="1453.9,580.3 1605.8,289.4 1632.8,300.6 1534.6,613.7 						"/>
					</g>
				</g>
				<g>
					<g>
						<path class="st3" d="M1611,303.9l7.9,3.3l-91.4,291.4l-57.8-23.9L1611,303.9 M1600.5,275l-9.6,18.4l-141.4,270.7l-11.5,22
							l22.9,9.5l57.8,23.9l22.9,9.5l7.4-23.6l91.4-291.4l6.2-19.8l-19.2-7.9l-7.9-3.3L1600.5,275L1600.5,275z"/>
					</g>
				</g>
			</g>
			<g>
				<g>
					<g>
						<path class="st6" d="M1650.8,474.6c-5.7,0-10.9-2.7-14.2-7.3l-54.6-75.2l-88.4,28.7c-1.8,0.6-3.7,0.9-5.5,0.9
							c-6.6,0-12.6-3.7-15.7-9.7c-3-5.9-2.5-13,1.5-18.4l54.6-75.2l-54.6-75.2c-3.9-5.4-4.5-12.4-1.5-18.4c3-6,9.1-9.7,15.7-9.7
							c1.9,0,3.7,0.3,5.5,0.9l88.4,28.7l54.6-75.2c3.4-4.6,8.6-7.3,14.2-7.3c9.8,0,17.7,7.9,17.7,17.7v93l88.4,28.7
							c7.3,2.4,12.2,9.1,12.2,16.8c0,7.7-4.9,14.4-12.2,16.8l-88.4,28.7v93C1668.6,466.7,1660.6,474.6,1650.8,474.6z"/>
					</g>
				</g>
				<g>
					<g>
						<path class="st3" d="M1650.8,173.6c3.2,0,6.4,2.4,6.4,6.3v96.6c0,2.7,1.8,5.2,4.4,6l91.9,29.9c5.8,1.9,5.8,10.1,0,12
							l-91.9,29.9c-2.6,0.8-4.4,3.3-4.4,6v96.6c0,3.9-3.2,6.3-6.4,6.3c-1.9,0-3.7-0.8-5.1-2.6l-56.8-78.2c-1.2-1.7-3.1-2.6-5.1-2.6
							c-0.7,0-1.3,0.1-2,0.3l-91.9,29.9c-0.7,0.2-1.4,0.3-2,0.3c-4.8,0-8.2-5.7-5-10.1l56.8-78.2c1.6-2.2,1.6-5.2,0-7.4l-56.8-78.2
							c-3.2-4.4,0.2-10.1,5-10.1c0.7,0,1.3,0.1,2,0.3l91.9,29.9c0.6,0.2,1.3,0.3,2,0.3c2,0,3.9-0.9,5.1-2.6l56.8-78.2
							C1647.1,174.4,1649,173.6,1650.8,173.6 M1650.8,150.9c-9.3,0-17.9,4.4-23.4,12l-49.8,68.5l-80.6-26.2c-2.9-1-6-1.4-9-1.4
							c-10.9,0-20.8,6.1-25.8,15.9c-5,9.7-4,21.3,2.4,30.2l49.8,68.5l-49.8,68.5c-6.4,8.9-7.4,20.4-2.4,30.2
							c5,9.8,14.9,15.9,25.8,15.9c3.1,0,6.1-0.5,9-1.4l80.6-26.2l49.8,68.5c5.5,7.6,14.1,12,23.4,12c16,0,29.1-13,29.1-29v-84.7
							l80.6-26.2c12-3.9,20-15,20-27.6s-8.1-23.7-20-27.6l-80.6-26.2V180C1679.9,164,1666.9,150.9,1650.8,150.9L1650.8,150.9z"/>
					</g>
				</g>
			</g>
			<g>
				<g>
					<g>
						<g>
							<path class="st4" d="M1386.6,1189.3c-121.9,0-236.7-33.7-323.1-94.9c-42.4-30-75.8-65-99.1-104.1
								c-24.4-40.8-36.8-84.3-36.8-129.1s12.4-88.3,36.8-129.1c23.4-39.1,56.7-74.1,99.1-104.1c86.5-61.2,201.2-94.9,323.1-94.9
								s236.7,33.7,323.1,94.9c42.4,30,75.8,65,99.1,104.1c24.4,40.8,36.8,84.3,36.8,129.1s-12.4,88.3-36.8,129.1
								c-23.4,39.1-56.7,74.1-99.1,104.1C1623.3,1155.6,1508.5,1189.3,1386.6,1189.3z"/>
						</g>
					</g>
					<g>
						<g>
							<path class="st3" d="M1386.6,544.4c247.2,0,447.7,141.8,447.7,316.8S1633.9,1178,1386.6,1178s-447.7-141.8-447.7-316.8
								S1139.4,544.4,1386.6,544.4 M1386.6,521.8c-62.6,0-123.5,8.7-180.8,25.8c-55.7,16.7-105.8,40.6-148.9,71.1
								c-43.7,30.9-78.1,67.1-102.3,107.6c-25.5,42.6-38.4,88-38.4,134.9s12.9,92.3,38.4,134.9c24.2,40.4,58.6,76.6,102.3,107.6
								c43.1,30.5,93.2,54.4,148.9,71.1c57.3,17.1,118.1,25.8,180.8,25.8s123.5-8.7,180.8-25.8c55.7-16.7,105.8-40.6,148.9-71.1
								c43.7-30.9,78.1-67.1,102.3-107.6c25.5-42.6,38.4-88,38.4-134.9s-12.9-92.3-38.4-134.9c-24.2-40.4-58.6-76.6-102.3-107.6
								c-43.1-30.5-93.2-54.4-148.9-71.1C1510.1,530.5,1449.2,521.8,1386.6,521.8L1386.6,521.8z"/>
						</g>
					</g>
				</g>
				<g>
					<path class="st3" d="M1663,992.5c-83.7,8.1-175.9,13.4-275.4,13.4c-100.2,0-193.1-5.2-277.4-13.4c0-91.6,0-183.2,0-274.8
						c71.2-18,167.4-35,281.7-34.4c109.4,0.5,201.8,16.9,271.1,34.4C1663,809.2,1663,900.8,1663,992.5z"/>
				</g>
				<g>
					<g>
						<path class="st6" d="M1386.6,938.1c-26.1,0-47.4-19.2-47.4-42.8h8.5c0,18.9,17.4,34.3,38.9,34.3s38.9-15.4,38.9-34.3h8.5
							C1434,918.9,1412.7,938.1,1386.6,938.1z"/>
					</g>
				</g>
				<g>
					<g>
						<g>
							<path class="st6" d="M1254.9,863.5c-26.1,0-47.4-15.1-47.4-33.7h8.5c0,13.9,17.4,25.2,38.9,25.2c21.4,0,38.9-11.3,38.9-25.2
								h8.5C1302.3,848.4,1281,863.5,1254.9,863.5z"/>
						</g>
					</g>
					<g>
						<g>
							<path class="st6" d="M1518.3,863.5c-26.1,0-47.4-15.1-47.4-33.7h8.5c0,13.9,17.4,25.2,38.9,25.2c21.4,0,38.9-11.3,38.9-25.2
								h8.5C1565.7,848.4,1544.4,863.5,1518.3,863.5z"/>
						</g>
					</g>
				</g>
			</g>
		</g>
	</g>
	<g>
		<g>
			<path class="st5" d="M1571.7,1795.4c0,0,11.1-45.2-71-231.9c-4.2-9.6-11.8-23.4-20.8-38.5c-36-60.6-71.1-121.6-105.8-182.9
				c-104.9-185.1-202.5-197-230.5-33.1c-31.7,186-43.5,421.9-193.7,524.7c0,0,80.3-36.4,163.6,95.1
				c83.3,131.5,152.1,220.3,260.3,222c11,1.1,22.1,0.9,33.3-0.7C1523.3,2133.7,1597,1974.9,1571.7,1795.4z"/>
			<path class="st3" d="M1387.5,2162.8c-4.8,0-9.5-0.2-14.3-0.7c-53.8-1-100.4-21.8-146.7-65.4c-41.5-39.2-79-93-122.6-161.9
				c-77.1-121.7-148.6-91.1-149.3-90.8l-11.1-19.7c55.1-37.7,95.8-97.9,124.5-184c25.7-77.1,38.6-163.9,51.1-247.9
				c4.4-29.7,8.6-57.7,13.3-85.3c15.9-93.4,51.7-118.6,78.9-123.4c25.6-4.5,53.9,6.9,83.8,33.9c29,26.1,58.9,66.1,88.8,118.9
				c38.8,68.5,73.4,128.2,105.7,182.7c10.2,17.1,17.4,30.5,21.4,39.7c73.7,167.8,73.6,223.9,72,236.6
				c12.2,88.4,1.4,174.6-30.4,243.1c-15.8,34-35.9,61.9-59.9,82.8c-25.2,22.1-53.6,35.5-84.2,39.8
				C1401.7,2162.3,1394.6,2162.8,1387.5,2162.8z M987.5,1818.3c4.9,0.5,10.1,1.3,15.6,2.6c19.3,4.6,38.4,14.3,56.7,28.6
				c22.3,17.5,43.6,42.1,63.3,73.2c42.7,67.4,79.2,119.9,119,157.5c42,39.7,83.9,58.5,131.9,59.3l0.9,0.1c10.2,1,20.5,0.8,30.6-0.7
				c52.3-7.4,97.3-46.4,126.7-109.7c30.2-65,40.2-147.5,28.3-232.1l-0.4-2.5l0.5-1.6c0.2-1.7,1.4-14.4-5.9-46
				c-7.1-30.8-24.1-86.9-64.4-178.8c-3.7-8.4-10.5-20.9-20.2-37.2c-32.4-54.6-67.1-114.5-105.9-183.1c-28.7-50.6-57-88.7-84.3-113.2
				c-16.9-15.2-41.8-32.4-64.8-28.4c-28.3,5-49.7,42.2-60.4,104.9c-4.7,27.3-8.8,55.3-13.2,84.8c-12.6,85-25.7,172.8-52,251.8
				C1064.8,1721.8,1031.3,1778,987.5,1818.3z M1560.7,1792.7L1560.7,1792.7L1560.7,1792.7z"/>
		</g>
		<g>
			<g>
				<g>
					<path class="st3" d="M573.4,2139.1c-6.3-1.2-12.1-4.8-16-10.5c-7.8-11.5-4.9-27.1,6.5-34.9l441.6-302.7
						c11.5-7.8,27.1-4.9,34.9,6.5c7.8,11.5,4.9,27.1-6.5,34.9l-441.6,302.7C586.5,2139.1,579.7,2140.3,573.4,2139.1z"/>
					<path class="st3" d="M578.1,2150.9c-2.3,0-4.6-0.2-6.9-0.7h0c-9.5-1.8-17.8-7.2-23.3-15.2c-5.5-8-7.6-17.7-5.8-27.3
						c1.8-9.6,7.2-17.9,15.2-23.4L999,1781.7c16.6-11.4,39.3-7.1,50.7,9.5c5.5,8,7.6,17.7,5.8,27.3c-1.8,9.6-7.2,17.9-15.2,23.4
						l-441.6,302.7C592.5,2148.7,585.4,2150.9,578.1,2150.9z M575.5,2128c3.6,0.7,7.3-0.1,10.4-2.2l441.6-302.7
						c3-2.1,5.1-5.2,5.8-8.8s-0.1-7.3-2.2-10.3c-4.3-6.3-12.9-7.9-19.2-3.6L570.3,2103c-3,2.1-5.1,5.2-5.8,8.8
						c-0.7,3.6,0.1,7.3,2.2,10.3C568.8,2125.3,571.9,2127.3,575.5,2128L575.5,2128z"/>
				</g>
			</g>
			<g>
				<g>
					<path class="st6" d="M573.4,2139.1c-6.3-1.2-12.1-4.8-16-10.5c-7.8-11.5-4.9-27.1,6.5-34.9l441.6-302.7
						c11.5-7.8,27.1-4.9,34.9,6.5c7.8,11.5,4.9,27.1-6.5,34.9l-441.6,302.7C586.5,2139.1,579.7,2140.3,573.4,2139.1z"/>
					<path class="st3" d="M578.1,2150.9c-2.3,0-4.6-0.2-6.9-0.7h0c-9.5-1.8-17.8-7.2-23.3-15.2c-5.5-8-7.6-17.7-5.8-27.3
						c1.8-9.6,7.2-17.9,15.2-23.4L999,1781.7c16.6-11.4,39.3-7.1,50.7,9.5c5.5,8,7.6,17.7,5.8,27.3c-1.8,9.6-7.2,17.9-15.2,23.4
						l-441.6,302.7C592.5,2148.7,585.4,2150.9,578.1,2150.9z M575.5,2128c3.6,0.7,7.3-0.1,10.4-2.2l441.6-302.7
						c3-2.1,5.1-5.2,5.8-8.8s-0.1-7.3-2.2-10.3c-4.3-6.3-12.9-7.9-19.2-3.6L570.3,2103c-3,2.1-5.1,5.2-5.8,8.8
						c-0.7,3.6,0.1,7.3,2.2,10.3C568.8,2125.3,571.9,2127.3,575.5,2128L575.5,2128z"/>
				</g>
			</g>
		</g>
		<g>
			<g>
				<path class="st6" d="M1284.1,2012.2c-11.4-1-21.1-9.7-22.8-21.5l-92-646.4c-2-13.7,7.6-26.5,21.3-28.4
					c13.7-2,26.5,7.6,28.4,21.3l92,646.4c2,13.7-7.6,26.5-21.3,28.4C1287.8,2012.3,1285.9,2012.4,1284.1,2012.2z"/>
				<path class="st3" d="M1286.2,2023.6c-1,0-2,0-3-0.1c-17-1.4-30.6-14.3-33-31.2l-92-646.4c-2.8-19.9,11.1-38.4,31-41.3
					c9.6-1.4,19.2,1.1,27,6.9c7.8,5.9,12.8,14.4,14.2,24l92,646.4c1.4,9.6-1.1,19.2-6.9,27c-5.9,7.8-14.4,12.8-24,14.2
					C1289.6,2023.5,1287.9,2023.6,1286.2,2023.6z M1194.2,1327c-0.7,0-1.3,0-2,0.1c-7.5,1.1-12.8,8.1-11.7,15.6l92,646.4
					c0.9,6.3,6.1,11.3,12.5,11.8l0,0c1,0.1,2.1,0.1,3.1-0.1c3.6-0.5,6.9-2.4,9.1-5.4c2.2-2.9,3.1-6.6,2.6-10.2l-92-646.4
					c-0.5-3.6-2.4-6.9-5.4-9.1C1200.1,1327.9,1197.2,1327,1194.2,1327z"/>
			</g>
		</g>
		<g>
			<path class="st3" d="M1170.6,1364.1c-0.6,0-1.3-0.1-1.9-0.2c-5-0.9-8.9-5-9.5-10c-1.1-9.7-2.5-33.7,9.2-47.1
				c5-5.8,11.8-8.9,19.7-9c10.2-0.2,19.5,4,27,12.1c5.9-15.1,14.6-24.2,25.7-26.9c26.5-6.5,52,26.3,68.9,51.6
				c3.5,5.2,2.1,12.2-3.1,15.7c-5.2,3.5-12.2,2.1-15.7-3.1c-29.1-43.5-42.3-42.8-44.6-42.2c-6,1.5-13.5,16.1-15.8,38
				c0,0.1,0,0.2,0,0.3c-0.3,5-3.9,9.4-9,10.4c-3.6,0.7-7.1-0.3-9.7-2.5c-0.1,0-0.1-0.1-0.2-0.1c-1-0.8-10.2-7.6-18.2-5.8
				c-4.6,1.1-8.8,5.3-12.3,12.5C1179.1,1361.6,1175,1364.1,1170.6,1364.1z M1181.7,1351.3
				C1181.7,1351.3,1181.7,1351.3,1181.7,1351.3C1181.7,1351.3,1181.7,1351.3,1181.7,1351.3z M1160.7,1347.6
				C1160.7,1347.6,1160.7,1347.6,1160.7,1347.6C1160.7,1347.6,1160.7,1347.6,1160.7,1347.6z M1188.7,1320.4c-0.1,0-0.1,0-0.2,0
				c-1.6,0-2.3,0.5-3,1.3c-0.6,0.7-1.2,1.6-1.7,2.7c1.4-0.5,2.9-1,4.4-1.3c2.3-0.5,4.5-0.8,6.6-0.9
				C1193.1,1321.1,1191,1320.4,1188.7,1320.4z"/>
		</g>
		<g>
			<polygon class="st3" points="1208.1,1332.9 1175.1,1334.9 1174.4,1318 1186.5,1313.7 1200.8,1314.9 1210.8,1330.8 			"/>
		</g>
		<g>
			<circle class="st3" cx="1203.6" cy="1393.1" r="8.9"/>
			<circle class="st3" cx="1210.4" cy="1440.7" r="8.9"/>
			<circle class="st3" cx="1217.2" cy="1488.4" r="8.9"/>
			<circle class="st3" cx="1224" cy="1536" r="8.9"/>
			<circle class="st3" cx="1230.8" cy="1583.7" r="8.9"/>
			<circle class="st3" cx="1237.6" cy="1631.3" r="8.9"/>
			<circle class="st3" cx="1244.3" cy="1679" r="8.9"/>
			<circle class="st3" cx="1251.1" cy="1726.6" r="8.9"/>
			<circle class="st3" cx="1257.9" cy="1774.2" r="8.9"/>
			<circle class="st3" cx="1264.7" cy="1821.9" r="8.9"/>
			<circle class="st3" cx="1271.5" cy="1869.5" r="8.9"/>
			<circle class="st3" cx="1278.2" cy="1917.2" r="8.9"/>
		</g>
		<g>
			<circle class="st3" cx="1017.2" cy="1813.4" r="8.9"/>
			<circle class="st3" cx="977.5" cy="1840.7" r="8.9"/>
			<circle class="st3" cx="937.8" cy="1867.9" r="8.9"/>
			<circle class="st3" cx="898.1" cy="1895.1" r="8.9"/>
			<circle class="st3" cx="858.4" cy="1922.3" r="8.9"/>
			<circle class="st3" cx="818.7" cy="1949.5" r="8.9"/>
			<circle class="st3" cx="779" cy="1976.7" r="8.9"/>
			<circle class="st3" cx="739.3" cy="2003.9" r="8.9"/>
			<circle class="st3" cx="699.6" cy="2031.1" r="8.9"/>
			<circle class="st3" cx="659.9" cy="2058.3" r="8.9"/>
			<circle class="st3" cx="620.2" cy="2085.5" r="8.9"/>
			<circle class="st3" cx="580.5" cy="2112.7" r="8.9"/>
		</g>
	</g>
	<line class="st7" x1="1368.1" y1="1870.3" x2="1758.9" y2="1791.8"/>
	<path class="st0" d="M1132.7,1572.8L1132.7,1572.8c6.9,22.9-6.1,47.1-29,54l-138.2,41.6c-22.9,6.9-47.1-6.1-54-29v0
		c-6.9-22.9,6.1-47.1,29-54l138.2-41.6C1101.6,1536.9,1125.8,1549.9,1132.7,1572.8z"/>
	<g>
		<g>
			<path class="st4" d="M1269.4,1570.3c-0.7,5.4-1.8,10.6-3.4,15.6c-2.1,6.6-5.1,12.9-8.8,18.7c-2.8,4.4-6.1,8.5-9.7,12.2
				c-2.1,2.2-4.4,4.3-6.7,6.2c-2.1,1.7-4.2,3.3-6.4,4.8c-1.8,1.2-3.7,2.4-5.6,3.4c-2.2,1.2-4.4,2.3-6.6,3.3c-3.5,1.6-7.2,2.9-10.9,4
				c-3.7,1.1-7.4,1.9-11.1,2.4c-10.8,1.5-21.9,0.9-32.6-2.1c-13.2-3.6-25-10.5-35.2-20.4c-11.9-11.6-19.7-26.3-22.6-42.5
				c-0.9-5-1.4-10.2-1.4-15.5c0.1-16.7,5-32.4,14.2-45.6c3-4.3,6.5-8.4,10.3-12.1c12-11.8,27.8-19.3,44.6-21.8l1.6,11.2l3.3,23.5
				l1.7,12c-5.2,3.3-9.6,7.6-12.6,12.8c-8.3,14-4.6,32,8.4,40.9c3,2.1,6.2,3.6,9.7,4.5h0c0.9,0.3,1.9,0.5,2.9,0.6
				c3.7,0.7,7.6,0.7,11.5,0.1c3.7-0.5,7.5-1.6,11-3.2c3.4-1.5,6.7-3.6,9.7-6c0,0,0,0,0,0c0.4-0.3,0.7-0.6,1.1-0.9c0,0,0,0,0,0
				c0.2-0.2,0.5-0.4,0.7-0.6l0.1-0.1c2.7-2.4,5.3-5.4,8.2-9.2c0.8-1.2,2.1-2.9,3.3-4.6c0.5-0.7,1-1.4,1.4-2c0.2-0.3,0.5-0.7,0.7-0.9
				l0.1-0.1c2.5-3.4,5.9-5.6,9.7-6.4c2.5-0.5,5.1-0.5,7.8,0.3c1.4,0.4,2.7,1,3.9,1.7C1267,1557.5,1270.1,1563.6,1269.4,1570.3z"/>
			<path class="st3" d="M1214.8,1583.4c-3.5,1.6-7.3,2.7-11,3.2l-1.6-11.2c-3.4,0.5-6.7,0.4-9.8-0.5c-0.6-0.2-1.2-0.4-1.9-0.6
				c-1.5-0.6-3-1.4-4.4-2.3c-8.1-5.6-10.3-16.9-5-25.9c1.2-2.1,2.8-4,4.6-5.7l-1.8-12.8l-1.7-12c-8.7,4.4-15.9,10.9-20.6,19
				c-11.3,19.1-6.2,43.8,11.6,56c4,2.8,8.4,4.9,13.2,6.2c2.5,0.7,5,1.1,7.5,1.4c1.4,0.1,2.8,0.2,4.3,0.2c2.4,0,4.8-0.2,7.1-0.5
				c3.7-0.5,7.4-1.5,11.1-2.9L1214.8,1583.4z M1260.5,1541.8c-0.3-0.1-0.6-0.2-0.9-0.2c-3.9-0.9-7.8-1-11.5-0.3
				c-3.9,0.7-7.6,2.3-10.8,4.6c-2.4,1.7-4.6,3.9-6.4,6.4l-0.2,0.3c-0.5,0.7-1.2,1.7-2,2.8c-1.2,1.6-2.4,3.3-3.3,4.6
				c-2.4,3.1-4.5,5.6-6.6,7.4l-0.2,0.2c-1.7,1.6-3.5,2.9-5.5,4c-3.4,2-7.2,3.3-10.9,3.9c-3.4,0.5-6.7,0.4-9.8-0.5
				c-0.6-0.2-1.2-0.4-1.9-0.6c-1.5-0.6-3-1.4-4.4-2.3c-8.1-5.6-10.3-16.9-5-25.9c1.2-2.1,2.8-4,4.6-5.7l-1.8-12.8l-1.7-12
				c-8.7,4.4-15.9,10.9-20.6,19c-11.3,19.1-6.2,43.8,11.6,56c4,2.8,8.4,4.9,13.2,6.2c2.5,0.7,5,1.1,7.5,1.4c1.4,0.1,2.8,0.2,4.3,0.2
				c2.4,0,4.8-0.2,7.1-0.5c3.7-0.5,7.4-1.5,11.1-2.9c3.1-1.2,6-2.6,8.9-4.3c3.1-1.9,6-4,8.6-6.5c1.5-1.4,3.1-2.9,4.6-4.7
				c1-1.1,2-2.3,3-3.5c0.7-0.9,1.4-1.8,2.1-2.7l0.3-0.4c0.7-1.1,1.9-2.7,3.1-4.4c0.8-1.2,1.6-2.2,2.1-3l0,0c0.6-0.8,1.3-1.4,2.1-1.7
				c0.9-0.4,2-0.4,3.1-0.1c2.5,0.7,3.9,2.8,3.6,5.4c-0.7,5.5-2,10.8-3.8,15.8c-2.2,6.1-5.2,11.8-9,17c-4.7,6.4-10.5,12-17.3,16.6
				c-2.4,1.6-5,3.1-7.6,4.4c-3.5,1.8-7.1,3.2-10.8,4.4c-3.6,1.1-7.3,2-11.1,2.5c-8.9,1.2-18,0.8-26.8-1.5l-1.2-0.6l-1.3,0
				c-10.8-3.2-20.6-9-29-17.2c-13.4-13.1-20.7-30.7-20.6-49.8c0.1-19.1,7.5-36.7,21-49.6l0.1-0.1c10.2-10.1,23.8-16.6,38.2-18.7
				l-1.6-11.2l-1.6-11.2c-18.4,2.7-35.9,10.8-49.4,23.5c-0.5,0.5-1,0.9-1.4,1.4c-5,4.8-9.4,10.1-13.2,15.9
				c-9.5,14.6-14.7,31.8-14.8,49.9c0,5.1,0.4,10.2,1.2,15.2c1.2,7.6,3.3,14.9,6.3,21.8c4.6,10.8,11.4,20.7,20,29.1
				c11.2,10.9,24.3,18.6,38.8,22.9l1.3,0.4c0.1,0,0.2,0,0.2,0.1l1,0.3h0c11.8,3.1,24,3.7,35.9,2c3.8-0.5,7.5-1.3,11.1-2.3
				c3.7-1,7.4-2.2,10.9-3.7c4.2-1.7,8.3-3.8,12.3-6.1c1.5-0.9,3-1.8,4.5-2.8c2-1.3,3.9-2.7,5.7-4.1c1.1-0.8,2.1-1.7,3.1-2.6
				c3.6-3.1,7-6.4,10-10c3.6-4.2,6.8-8.7,9.5-13.5c6.1-10.6,10.1-22.5,11.7-35.3l0-0.2c0.1-0.8,0.1-1.5,0.2-2.3
				C1281.2,1556.4,1273.1,1545.2,1260.5,1541.8z"/>
		</g>
	</g>
	<circle class="st8" cx="957.2" cy="1625.6" r="11.4"/>
	<g>
		<g>
			<path class="st4" d="M1230,1896.4c2.2,5,4.8,9.6,7.8,13.9c4,5.8,8.6,10.9,13.8,15.3c4,3.4,8.2,6.4,12.8,8.9
				c2.7,1.5,5.4,2.8,8.2,4c2.4,1,5,1.9,7.5,2.7c2.1,0.6,4.2,1.2,6.3,1.7c2.4,0.5,4.9,1,7.3,1.3c3.8,0.5,7.7,0.7,11.6,0.7
				c3.8,0,7.6-0.3,11.3-0.9c10.8-1.6,21.2-5.5,30.6-11.4c11.6-7.3,21-17.2,27.8-29.6c8.1-14.5,11.3-30.8,9.5-47.2
				c-0.5-5.1-1.6-10.2-3.1-15.3c-4.9-16-14.1-29.6-26.6-39.6c-4.1-3.3-8.6-6.2-13.4-8.6c-14.8-7.9-32.2-10.5-48.9-8.1l1.7,11.2
				l3.6,23.5l1.8,12c6,1.6,11.3,4.5,15.7,8.6c12,11,13.6,29.3,3.7,41.6c-2.2,2.8-4.9,5.2-8,7.1l0,0c-0.8,0.5-1.7,1-2.6,1.4
				c-3.4,1.7-7.1,2.8-11,3.4c-3.7,0.6-7.6,0.6-11.5,0.1c-3.7-0.5-7.4-1.5-11-3c0,0,0,0,0,0c-0.4-0.2-0.9-0.4-1.3-0.6c0,0,0,0,0,0
				c-0.3-0.1-0.6-0.3-0.9-0.4l-0.1-0.1c-3.2-1.5-6.7-3.6-10.5-6.5c-1.1-0.9-2.8-2.2-4.5-3.5c-0.7-0.5-1.4-1.1-1.9-1.5
				c-0.3-0.3-0.6-0.5-0.9-0.7l-0.1-0.1c-3.3-2.5-7.3-3.7-11.1-3.4c-2.5,0.2-5,1-7.4,2.5c-1.2,0.8-2.4,1.7-3.3,2.7
				C1228.6,1883.4,1227.3,1890.1,1230,1896.4z"/>
			<path class="st3" d="M1286,1893.3c3.9,0.5,7.7,0.5,11.5-0.1l-1.7-11.2c3.4-0.5,6.5-1.6,9.2-3.3c0.6-0.4,1.1-0.7,1.6-1.1
				c1.3-1,2.5-2.2,3.5-3.5c6.2-7.7,5-19.2-2.7-26.3c-1.8-1.7-3.8-3-6-4.1l-1.9-12.8l-1.8-12c9.6,1.7,18.4,5.9,25.2,12.3
				c16.3,15.1,18.5,40.1,4.9,57c-3,3.8-6.7,7.1-10.8,9.7c-2.2,1.4-4.4,2.5-6.8,3.5c-1.3,0.5-2.7,1-4,1.4c-2.3,0.7-4.6,1.2-7,1.5
				c-3.7,0.6-7.6,0.7-11.4,0.4L1286,1893.3z M1230.3,1866.5c0.3-0.2,0.5-0.3,0.8-0.5c3.4-2,7.2-3.2,10.9-3.6c3.9-0.4,7.9,0,11.7,1.3
				c2.8,0.9,5.5,2.4,8,4.3l0.3,0.2c0.7,0.5,1.7,1.3,2.8,2.1c1.6,1.2,3.2,2.5,4.4,3.5c3.2,2.3,5.9,4,8.4,5.2l0.3,0.1
				c2.1,1,4.2,1.8,6.4,2.3c3.9,0.9,7.8,1.1,11.6,0.6c3.4-0.5,6.5-1.6,9.2-3.3c0.6-0.4,1.1-0.7,1.6-1.1c1.3-1,2.5-2.2,3.5-3.5
				c6.2-7.7,5-19.2-2.7-26.3c-1.8-1.7-3.8-3-6-4.1l-1.9-12.8l-1.8-12c9.6,1.7,18.4,5.9,25.2,12.3c16.3,15.1,18.5,40.1,4.9,57
				c-3,3.8-6.7,7.1-10.8,9.7c-2.2,1.4-4.4,2.5-6.8,3.5c-1.3,0.5-2.7,1-4,1.4c-2.3,0.7-4.6,1.2-7,1.5c-3.7,0.6-7.6,0.7-11.4,0.4
				c-3.3-0.2-6.5-0.8-9.8-1.6c-3.5-0.9-6.9-2.1-10.1-3.7c-1.9-0.9-3.8-1.9-5.8-3.1c-1.3-0.8-2.6-1.6-3.9-2.5c-0.9-0.6-1.8-1.3-2.8-2
				l-0.4-0.3c-1-0.8-2.6-2.1-4.2-3.3c-1.1-0.9-2.2-1.7-2.9-2.2l0,0c-0.8-0.6-1.6-1-2.5-1c-1-0.1-2,0.1-3.1,0.8
				c-2.2,1.4-2.9,3.8-1.9,6.2c2.2,5.1,5,9.7,8.1,14c3.9,5.2,8.4,9.8,13.5,13.7c6.3,4.8,13.5,8.5,21.4,10.9c2.8,0.9,5.7,1.6,8.5,2.1
				c3.9,0.7,7.8,1,11.6,1.1c3.8,0,7.6-0.2,11.4-0.8c8.9-1.4,17.4-4.4,25.2-9.1l0.9-0.9l1.2-0.4c9.5-6.2,17.1-14.5,22.9-24.8
				c9.1-16.4,11-35.4,5.4-53.6c-5.6-18.3-17.8-33-34.4-41.5l-0.1-0.1c-12.7-6.8-27.6-9-42-6.9l-1.7-11.2l-1.7-11.2
				c18.4-2.7,37.5,0,54.1,8.3c0.6,0.3,1.2,0.6,1.8,0.9c6.2,3.2,11.9,7,17.2,11.4c13.3,11.3,23.2,26.2,28.5,43.6
				c1.5,4.9,2.6,9.9,3.3,14.9c1,7.6,1.1,15.2,0.3,22.7c-1.3,11.7-5,23.1-10.8,33.7c-7.6,13.7-17.9,24.8-30.6,33l-1.1,0.7
				c-0.1,0-0.1,0.1-0.2,0.1l-0.9,0.6l0,0c-10.4,6.3-21.9,10.4-33.8,12.2c-3.7,0.6-7.5,0.9-11.3,1c-3.8,0.1-7.7,0-11.5-0.4
				c-4.5-0.4-9.1-1.2-13.5-2.3c-1.7-0.4-3.4-0.9-5.1-1.4c-2.3-0.7-4.5-1.5-6.6-2.3c-1.3-0.5-2.5-1-3.7-1.6
				c-4.4-1.9-8.5-4.2-12.5-6.7c-4.6-3-9-6.4-13-10.2c-8.9-8.4-16.1-18.7-21.3-30.4l-0.1-0.1c-0.3-0.7-0.6-1.4-0.8-2.1
				C1214.6,1886.4,1219.1,1873.4,1230.3,1866.5z"/>
		</g>
	</g>
	<path class="st0" d="M1400,1843.4L1400,1843.4c-5.6-27.7,12.4-54.6,40-60.2l352.2-70.7c27.7-5.6,54.6,12.4,60.2,40l0,0
		c5.6,27.7-12.4,54.6-40,60.2l-352.2,70.7C1432.5,1889,1405.5,1871.1,1400,1843.4z"/>
	<circle class="st8" cx="1788.7" cy="1765.4" r="11.4"/>
</g>
</svg>
